<svg height="512pt" viewBox="0 -29 512.00012 512" width="512pt" xmlns="http://www.w3.org/2000/svg"><path d="m41.464844 439.0625c-23.597656 0-33.25-16.722656-21.449219-37.15625l214.53125-371.578125c11.796875-20.4375 31.105469-20.4375 42.90625 0l214.53125 371.578125c11.800781 20.433594 2.148437 37.15625-21.453125 37.15625zm0 0" fill="#fedb41"/><path d="m491.984375 401.90625-214.53125-371.578125c-5.898437-10.21875-13.675781-15.324219-21.453125-15.328125v424.0625h214.53125c23.597656 0 33.253906-16.722656 21.453125-37.15625zm0 0" fill="#fcbf29"/><g fill="#555a66"><path d="m470.53125 454.0625h-429.066406c-16.75 0-30.234375-6.710938-36.988282-18.414062-6.757812-11.703126-5.828124-26.738282 2.546876-41.242188l214.53125-371.578125c8.375-14.507813 20.929687-22.828125 34.441406-22.828125 13.515625 0 26.070312 8.320312 34.445312 22.828125l214.535156 371.578125c8.375 14.503906 9.304688 29.535156 2.546876 41.238281-6.753907 11.707031-20.238282 18.417969-36.992188 18.417969zm-214.53125-424.058594c-1.964844 0-5.339844 2.417969-8.460938 7.824219l-214.53125 371.578125c-3.121093 5.40625-3.53125 9.542969-2.546874 11.242188.980468 1.695312 4.761718 3.410156 11.003906 3.410156h429.066406c6.242188 0 10.027344-1.714844 11.011719-3.414063.980469-1.699219.570312-5.832031-2.550781-11.238281l-214.53125-371.578125c-3.121094-5.40625-6.5-7.824219-8.460938-7.824219zm0 0"/><path d="m256 327.652344c-21.5625 0-39.101562 17.542968-39.101562 39.105468 0 21.558594 17.539062 39.101563 39.101562 39.101563s39.105469-17.542969 39.105469-39.101563c0-21.5625-17.542969-39.105468-39.105469-39.105468zm0 0"/><path d="m256 99.484375c-21.5625 0-39.101562 17.542969-39.101562 39.105469v131.757812c0 21.5625 17.539062 39.101563 39.101562 39.101563s39.105469-17.539063 39.105469-39.101563v-131.757812c0-21.5625-17.542969-39.105469-39.105469-39.105469zm0 0"/></g><path d="m504.976562 394.40625-214.535156-371.578125c-8.375-14.507813-20.929687-22.828125-34.441406-22.828125v30.003906c1.964844 0 5.339844 2.421875 8.460938 7.824219l214.53125 371.578125c3.121093 5.40625 3.53125 9.539062 2.550781 11.238281-.984375 1.699219-4.765625 3.414063-11.011719 3.414063h-214.53125v30.003906h214.53125c16.753906 0 30.234375-6.710938 36.992188-18.417969 6.757812-11.703125 5.828124-26.734375-2.546876-41.238281zm0 0" fill="#3c3a41"/><path d="m295.105469 366.753906c0-21.558594-17.542969-39.101562-39.105469-39.101562v78.207031c21.5625 0 39.105469-17.542969 39.105469-39.105469zm0 0" fill="#3c3a41"/><path d="m295.105469 270.347656v-131.757812c0-21.5625-17.542969-39.105469-39.105469-39.105469v209.964844c21.5625 0 39.105469-17.539063 39.105469-39.101563zm0 0" fill="#3c3a41"/></svg>